<?xml version="1.0" encoding="UTF-8"?>
<svg id="Layer_2" data-name="Layer 2" xmlns="http://www.w3.org/2000/svg" viewBox="0 0 169.94 280">
  <defs>
    <style>
      .cls-1 {
        fill: none;
      }

      .cls-2 {
        fill: #fff;
      }

      .cls-3 {
        fill: #8cc63f;
      }
    </style>
  </defs>
  <g id="Layer_1-2" data-name="Layer 1">
    <g id="Artwork_1" data-name="Artwork 1">
      <g>
        <g>
          <path d="m169.94,247.16v-12.5c-1.13,5.26-2.8,10.46-5.38,15.56,1.92-.87,3.69-1.92,5.38-3.07Z"/>
          <path d="m11.19,280h9.97c.72-1.59,1.64-3.15,3.03-4.63-4.16-.47-8.55,1.7-12.99,4.63Z"/>
          <path class="cls-1" d="m148.44,231.9c-.87-.89-2.59-2.72-4.58-4.62-4.3,4.51-8.7,8.39-14.25,13.02,3.39-5.75,7.96-12.67,10.03-16.7-1.87-1.43-3.62-2.41-4.79-2.28-.59.06-1.17.13-1.76.19-.45-.39-.9-.78-1.35-1.17-1.04-.89-2.08-1.82-3.11-2.78-3.88,3.68-7.35,7.76-10.57,12.12,2.3-.75,4.63-1.31,7.01-1.53-5.22,7.77-10.04,15.79-14.08,24.31-4.29,5.27-9.33,9.88-14.58,14.32,7.7-3.27,14.85-7.1,21.37-11.59-.55,2.22-1.33,4.43-2.32,6.65,5.72-5.86,11.84-10.68,18.44-14.26-2.7,3.51-4.99,7.24-6.96,11.13,3.78-3.24,8.04-5.53,13.14-6.19,6.16-3.99,11.72-9.08,15.99-13.29-3.01-2.42-4.93-4.56-7.64-7.33Z"/>
          <path class="cls-1" d="m69.12,266.94c13.06-6.61,25.99-12.36,38.76-17.16,2.9-6.18,6.34-11.93,10.27-17.27-4.86,2.15-9.68,4.78-14.47,7.84,5.93-8.8,12.11-17.25,18.77-24.99-3.55,1.09-7.16,1.93-10.82,2.5,1.62-4.9,2.96-9.84,3.99-14.81-4.41,5.81-9.3,11.16-14.47,16.33-2.97,2.97-6.93,4.31-10.73,5.75-2.23.84-5.23,1.97-6.85,3.83-6.3,7.24-12.8,14.32-20.03,20.59-7.42,6.43-14.96,15.03-21.91,22.18,8.9-5.61,17.8-10.57,26.71-14.67-1.58,2.15-2.88,4.47-3.98,6.93,9.62-9.47,19.75-18.25,30.7-25.9-9.03,8.68-17.65,18.36-25.95,28.86Z"/>
          <path class="cls-3" d="m0,0v280h.06c6.99-7.15,14.04-13.56,21.45-15.52,10.64-8.33,19.77-17.56,27.09-27.87,5.01,2.1,7.16,6.57,12.26,9.65,7.05-6.11,13.37-13.02,19.61-20.17,4.45-5.1,13.3-5.3,17.77-9.78,6.65-6.66,12.43-13.17,17.5-20.65,4.46,7.34,11.5,15.23,18.67,21.4,7.28-.79,16.56,12.65,25.08,19.49,3.47-2.63,7.04-5.6,10.2-9.03.08.11.17.23.25.35V0H0Z"/>
          <path d="m159.5,236.54c-8.53-6.84-17.8-20.28-25.08-19.49-7.17-6.17-14.21-14.06-18.67-21.4-5.07,7.48-10.85,13.98-17.5,20.65-4.47,4.48-13.33,4.68-17.77,9.78-6.24,7.16-12.56,14.06-19.61,20.17-5.1-3.08-7.26-7.55-12.26-9.65-7.31,10.31-16.45,19.54-27.09,27.87-7.41,1.96-14.46,8.37-21.45,15.52h5.94c5.1-4.98,11-9.9,16.54-11.36.27-.07.54-.14.82-.22.22-.17.45-.35.67-.53,9.52-7.46,18.29-15.95,25.66-25.66-.4,4.54-1.54,8.94-3.04,13.25,1.71-1.05,3.46-1.71,5.25-1.93-3.91,4.04-6.92,8.39-9.5,12.89-6.88.63-13.47,6.3-19.98,13.54h147.51v-28.5c-.97,2.78-2.11,5.54-3.51,8.26-7.42,4.86-15.22,9.65-23.08,14.43,4.09-4.27,7.9-8.79,11.48-13.52-6.37,4.86-13.43,9.45-20.98,13.86,1.29-2.66,2.39-5.34,3.09-8.07-7.28,4.12-15.28,7.74-23.52,11.18,8.58-5.98,16.59-12.28,23.85-19.02,1.77-.27,3.53-.53,5.3-.8,9.69-7.31,18.84-15.05,27.36-23.26v-6.7c-.08-.11-.17-.23-.25-.35-3.16,3.43-6.73,6.4-10.2,9.03Zm-95.12,27.44c1.1-2.46,2.4-4.78,3.98-6.93-8.9,4.1-17.8,9.06-26.71,14.67,6.95-7.15,14.5-15.75,21.91-22.18,7.23-6.27,13.72-13.36,20.03-20.59,1.62-1.86,4.62-2.99,6.85-3.83,3.8-1.43,7.76-2.77,10.73-5.75,5.16-5.18,10.06-10.52,14.47-16.33-1.03,4.98-2.37,9.91-3.99,14.81,3.66-.56,7.27-1.41,10.82-2.5-6.66,7.74-12.84,16.19-18.77,24.99,4.79-3.06,9.61-5.69,14.47-7.84-3.93,5.34-7.37,11.09-10.27,17.27-12.77,4.79-25.69,10.54-38.76,17.16,8.3-10.49,16.92-20.18,25.95-28.86-10.95,7.65-21.08,16.43-30.7,25.9Zm75.72-11.46c-5.1.66-9.36,2.96-13.14,6.19,1.96-3.89,4.26-7.62,6.96-11.13-6.6,3.58-12.72,8.4-18.44,14.26.99-2.22,1.77-4.43,2.32-6.65-6.52,4.48-13.67,8.32-21.37,11.59,5.25-4.44,10.29-9.05,14.58-14.32,4.04-8.53,8.86-16.54,14.08-24.31-2.38.22-4.71.78-7.01,1.53,3.21-4.36,6.69-8.45,10.57-12.12,1.03.96,2.07,1.89,3.11,2.78.45.39.9.78,1.35,1.17.59-.06,1.17-.13,1.76-.19,1.18-.13,2.92.86,4.79,2.28-2.07,4.02-6.64,10.95-10.03,16.7,5.56-4.62,9.95-8.51,14.25-13.02,1.98,1.89,3.71,3.73,4.58,4.62,2.71,2.77,4.62,4.92,7.64,7.33-4.27,4.21-9.83,9.3-15.99,13.29Z"/>
          <path class="cls-2" d="m148.44,231.9c-.87-.89-2.59-2.72-4.58-4.62-4.3,4.51-8.7,8.39-14.25,13.02,3.39-5.75,7.96-12.67,10.03-16.7-1.87-1.43-3.62-2.41-4.79-2.28-.59.06-1.17.13-1.76.19-.45-.39-.9-.78-1.35-1.17-1.04-.89-2.08-1.82-3.11-2.78-3.88,3.68-7.35,7.76-10.57,12.12,2.3-.75,4.63-1.31,7.01-1.53-5.22,7.77-10.04,15.79-14.08,24.31-4.29,5.27-9.33,9.88-14.58,14.32,7.7-3.27,14.85-7.1,21.37-11.59-.55,2.22-1.33,4.43-2.32,6.65,5.72-5.86,11.84-10.68,18.44-14.26-2.7,3.51-4.99,7.24-6.96,11.13,3.78-3.24,8.04-5.53,13.14-6.19,6.16-3.99,11.72-9.08,15.99-13.29-3.01-2.42-4.93-4.56-7.64-7.33Z"/>
          <path class="cls-2" d="m69.12,266.94c13.06-6.61,25.99-12.36,38.76-17.16,2.9-6.18,6.34-11.93,10.27-17.27-4.86,2.15-9.68,4.78-14.47,7.84,5.93-8.8,12.11-17.25,18.77-24.99-3.55,1.09-7.16,1.93-10.82,2.5,1.62-4.9,2.96-9.84,3.99-14.81-4.41,5.81-9.3,11.16-14.47,16.33-2.97,2.97-6.93,4.31-10.73,5.75-2.23.84-5.23,1.97-6.85,3.83-6.3,7.24-12.8,14.32-20.03,20.59-7.42,6.43-14.96,15.03-21.91,22.18,8.9-5.61,17.8-10.57,26.71-14.67-1.58,2.15-2.88,4.47-3.98,6.93,9.62-9.47,19.75-18.25,30.7-25.9-9.03,8.68-17.65,18.36-25.95,28.86Z"/>
          <path class="cls-2" d="m42.4,266.46c2.58-4.5,5.59-8.85,9.5-12.89-1.79.22-3.53.88-5.25,1.93,1.5-4.32,2.64-8.71,3.04-13.25-7.37,9.71-16.13,18.2-25.66,25.66-.22.17-.45.35-.67.53-.27.07-.54.14-.82.22-5.54,1.47-11.45,6.38-16.54,11.36h5.18c4.45-2.93,8.83-5.1,12.99-4.63-1.38,1.48-2.31,3.03-3.03,4.63h1.27c6.5-7.24,13.1-12.92,19.98-13.54Z"/>
          <path class="cls-2" d="m137.28,258.63c-7.26,6.74-15.27,13.04-23.85,19.02,8.24-3.44,16.24-7.06,23.52-11.18-.7,2.73-1.8,5.41-3.09,8.07,7.55-4.41,14.61-9,20.98-13.86-3.58,4.73-7.39,9.25-11.48,13.52,7.86-4.78,15.66-9.57,23.08-14.43,1.39-2.72,2.54-5.48,3.51-8.26v-4.35c-1.69,1.14-3.47,2.19-5.38,3.07,2.59-5.11,4.25-10.31,5.38-15.56v-.09c-8.52,8.22-17.66,15.95-27.36,23.26-1.77.26-3.53.53-5.3.8Z"/>
        </g>
        <g>
          <g>
            <path d="m61.39,162.27l-3.28-4.7c-.14.02-.34.02-.62.02h-3.63v4.68h-2.98v-16.06h6.61c1.39,0,2.6.23,3.64.69,1.03.46,1.82,1.12,2.37,1.97.55.86.83,1.87.83,3.05s-.29,2.25-.88,3.12c-.59.87-1.43,1.52-2.53,1.95l3.69,5.28h-3.21Zm-1.08-12.71c-.67-.55-1.66-.83-2.96-.83h-3.49v6.4h3.49c1.3,0,2.29-.28,2.96-.84.67-.56,1.01-1.35,1.01-2.38s-.34-1.81-1.01-2.36Z"/>
            <path d="m67.2,146.21h2.98v16.06h-2.98v-16.06Z"/>
            <path d="m73.14,146.21h7.02c1.71,0,3.24.33,4.57,1s2.36,1.61,3.1,2.82c.73,1.22,1.1,2.62,1.1,4.21s-.37,2.99-1.1,4.21c-.73,1.22-1.77,2.16-3.1,2.82-1.33.67-2.85,1-4.57,1h-7.02v-16.06Zm6.88,13.54c1.18,0,2.21-.23,3.11-.68s1.58-1.09,2.07-1.93.72-1.8.72-2.9-.24-2.07-.72-2.9c-.48-.83-1.17-1.47-2.07-1.93-.89-.45-1.93-.68-3.11-.68h-3.9v11.01h3.9Z"/>
            <path d="m102.14,154.06h2.82v6.4c-.83.66-1.79,1.16-2.89,1.51-1.1.35-2.23.53-3.4.53-1.64,0-3.11-.36-4.43-1.07-1.32-.71-2.35-1.69-3.1-2.95-.75-1.25-1.12-2.67-1.12-4.25s.37-2.99,1.12-4.25c.75-1.25,1.79-2.24,3.11-2.95,1.32-.71,2.81-1.07,4.46-1.07,1.35,0,2.57.22,3.67.67s2.03,1.09,2.78,1.95l-1.88,1.83c-1.22-1.22-2.7-1.83-4.43-1.83-1.13,0-2.14.24-3.02.71-.88.47-1.57,1.14-2.07,1.99-.5.86-.75,1.84-.75,2.94s.25,2.03.75,2.89c.5.86,1.19,1.53,2.07,2.02.88.49,1.88.73,2.99.73,1.25,0,2.36-.27,3.3-.82v-5Z"/>
            <path d="m120.01,159.77v2.5h-12.05v-16.06h11.72v2.5h-8.74v4.17h7.75v2.46h-7.75v4.43h9.06Z"/>
            <path d="m57.74,174.85c-.56-.17-1.01-.4-1.34-.68l.5-1.13c.32.25.72.46,1.18.62.47.16.94.24,1.41.24.58,0,1.02-.09,1.31-.28.29-.19.43-.43.43-.74,0-.23-.08-.41-.24-.56-.16-.15-.37-.26-.61-.34s-.59-.18-1.01-.28c-.6-.14-1.08-.28-1.45-.43-.37-.14-.69-.36-.95-.67-.27-.3-.4-.71-.4-1.23,0-.43.12-.83.35-1.18.24-.36.59-.64,1.07-.85.48-.21,1.06-.32,1.75-.32.48,0,.95.06,1.42.18.46.12.86.29,1.2.52l-.46,1.13c-.34-.2-.7-.36-1.08-.46-.37-.11-.74-.16-1.09-.16-.58,0-1,.1-1.29.29s-.42.45-.42.77c0,.22.08.41.24.55.16.14.37.25.61.34s.58.18,1.01.28c.58.13,1.06.27,1.44.42.37.15.69.37.96.67s.4.7.4,1.21c0,.43-.12.83-.35,1.18-.24.35-.59.63-1.07.84-.48.21-1.06.31-1.75.31-.61,0-1.19-.09-1.76-.26Z"/>
            <path d="m70.35,173.77v1.22h-5.89v-7.86h5.73v1.22h-4.28v2.04h3.79v1.2h-3.79v2.17h4.43Z"/>
            <path d="m73.13,174.58c-.64-.35-1.14-.83-1.5-1.44s-.54-1.31-.54-2.08.18-1.46.55-2.08c.37-.61.87-1.1,1.51-1.44.64-.35,1.36-.52,2.15-.52.64,0,1.23.11,1.76.34.53.23.98.55,1.35.98l-.94.89c-.57-.61-1.27-.92-2.1-.92-.54,0-1.02.12-1.45.35-.43.24-.76.56-1,.98s-.36.89-.36,1.43.12,1.01.36,1.42.57.75,1,.98.91.35,1.45.35c.83,0,1.53-.31,2.1-.93l.94.9c-.37.43-.82.75-1.35.98-.54.22-1.12.34-1.77.34-.79,0-1.51-.17-2.15-.52Z"/>
            <path d="m80.3,174.19c-.61-.61-.91-1.48-.91-2.62v-4.43h1.46v4.38c0,1.54.67,2.31,2,2.31s1.99-.77,1.99-2.31v-4.38h1.44v4.43c0,1.14-.3,2.01-.9,2.62s-1.45.91-2.53.91-1.93-.3-2.54-.91Z"/>
            <path d="m93.12,174.99l-1.6-2.3c-.07,0-.17.01-.3.01h-1.77v2.29h-1.46v-7.86h3.23c.68,0,1.27.11,1.78.34.5.23.89.55,1.16.97s.41.92.41,1.49-.15,1.1-.43,1.53c-.29.43-.7.75-1.24.95l1.81,2.58h-1.57Zm-.53-6.22c-.33-.27-.81-.4-1.45-.4h-1.71v3.13h1.71c.64,0,1.12-.14,1.45-.41.33-.27.5-.66.5-1.16s-.17-.89-.5-1.16Z"/>
            <path d="m96.3,167.14h1.46v7.86h-1.46v-7.86Z"/>
            <path d="m101.81,168.37h-2.6v-1.24h6.67v1.24h-2.6v6.62h-1.46v-6.62Z"/>
            <path d="m110.93,172.22v2.77h-1.46v-2.75l-3.09-5.11h1.56l2.3,3.83,2.32-3.83h1.44l-3.08,5.08Z"/>
          </g>
          <path d="m83.32,107.79h-10.9v13.86h-19.99v-52.17h32.3c6.39,0,11.94.78,16.66,2.35,4.71,1.57,8.34,3.8,10.9,6.71,2.56,2.91,3.84,6.32,3.84,10.25s-1.2,7.07-3.58,9.87c-2.39,2.81-5.81,5.01-10.25,6.6l15.24,16.4h-21.4l-12.82-13.86Zm9.49-24.67c-2.09-1.34-5.18-2.01-9.29-2.01h-11.1v15.28h11.1c4.1,0,7.2-.66,9.29-1.98,2.08-1.32,3.13-3.19,3.13-5.63s-1.04-4.32-3.13-5.66Z"/>
          <rect x="48.39" y="127.81" width="73.15" height="12.21"/>
        </g>
      </g>
    </g>
  </g>
</svg>