<?xml version="1.0" encoding="UTF-8"?>
<svg id="Layer_2" data-name="Layer 2" xmlns="http://www.w3.org/2000/svg" viewBox="0 0 224.92 60">
  <defs>
    <style>
      .cls-1 {
        fill: #fff;
      }

      .cls-2 {
        fill: #8cc63f;
      }
    </style>
  </defs>
  <g id="Layer_2-2" data-name="Layer 2">
    <g>
      <g>
        <path class="cls-1" d="m93.4,33.18h-4.03v7.33h-3.82v-18.68h9.16c1.31.03,2.32.19,3.02.48s1.3.73,1.79,1.31c.41.47.73,1,.96,1.57.24.58.35,1.23.35,1.96,0,.89-.22,1.76-.67,2.62-.45.86-1.19,1.46-2.22,1.82.86.35,1.47.84,1.83,1.48.36.64.54,1.61.54,2.92v1.25c0,.85.03,1.43.1,1.74.1.48.34.84.71,1.06v.47h-4.3c-.12-.41-.2-.75-.25-1-.1-.52-.16-1.06-.17-1.61l-.03-1.74c-.02-1.19-.23-1.99-.65-2.38-.42-.4-1.2-.6-2.35-.6Zm2.37-3.4c.78-.35,1.17-1.06,1.17-2.1,0-1.13-.38-1.89-1.13-2.28-.42-.22-1.06-.33-1.9-.33h-4.54v5.02h4.42c.88,0,1.54-.1,1.98-.3Z"/>
        <path class="cls-1" d="m106.85,21.71v3.33h-3.66v-3.33h3.66Zm0,4.98v13.82h-3.66v-13.82h3.66Z"/>
        <path class="cls-1" d="m122.15,21.85v18.66h-3.51v-1.91c-.52.82-1.1,1.42-1.76,1.79-.66.37-1.48.56-2.46.56-1.61,0-2.97-.65-4.08-1.96-1.1-1.31-1.65-2.98-1.65-5.03,0-2.36.54-4.21,1.63-5.56s2.54-2.03,4.35-2.03c.84,0,1.58.18,2.23.55.65.37,1.18.88,1.58,1.53v-6.59h3.66Zm-9.73,11.84c0,1.28.25,2.29.76,3.05.5.77,1.26,1.15,2.28,1.15s1.8-.38,2.33-1.14c.53-.76.8-1.74.8-2.95,0-1.69-.43-2.9-1.28-3.63-.52-.44-1.13-.66-1.83-.66-1.06,0-1.83.4-2.33,1.2-.49.8-.74,1.79-.74,2.97Z"/>
        <path class="cls-1" d="m128.55,42.93c.39.33,1.04.49,1.96.49,1.3,0,2.17-.44,2.61-1.31.29-.56.43-1.5.43-2.81v-.89c-.35.59-.72,1.04-1.12,1.33-.72.55-1.65.82-2.8.82-1.77,0-3.19-.62-4.25-1.87s-1.59-2.93-1.59-5.06.51-3.78,1.53-5.18,2.47-2.1,4.35-2.1c.69,0,1.3.11,1.81.32.88.36,1.59,1.03,2.13,2v-1.99h3.51v13.11c0,1.78-.3,3.13-.9,4.03-1.03,1.55-3.01,2.33-5.93,2.33-1.77,0-3.21-.35-4.32-1.04-1.12-.69-1.73-1.73-1.85-3.11h3.93c.1.42.27.73.49.91Zm-.61-7.14c.49,1.17,1.37,1.75,2.64,1.75.85,0,1.56-.32,2.14-.96.58-.64.88-1.65.88-3.05,0-1.31-.28-2.31-.83-2.99-.55-.68-1.29-1.03-2.22-1.03-1.27,0-2.14.6-2.62,1.79-.25.63-.38,1.42-.38,2.34,0,.8.14,1.52.41,2.14Z"/>
        <path class="cls-1" d="m151.55,36.45c-.09.82-.52,1.65-1.28,2.5-1.18,1.34-2.84,2.02-4.97,2.02-1.76,0-3.31-.57-4.65-1.7-1.34-1.13-2.02-2.97-2.02-5.53,0-2.39.61-4.23,1.82-5.5s2.79-1.91,4.72-1.91c1.15,0,2.18.22,3.11.65.92.43,1.68,1.11,2.28,2.04.54.82.89,1.77,1.05,2.85.09.63.13,1.55.11,2.74h-9.46c.05,1.39.49,2.36,1.31,2.92.5.35,1.1.52,1.8.52.74,0,1.35-.21,1.81-.63.25-.23.48-.54.67-.95h3.69Zm-3.57-4.23c-.06-.96-.35-1.68-.87-2.17-.52-.49-1.16-.74-1.93-.74-.84,0-1.49.26-1.95.79s-.75,1.23-.87,2.13h5.62Z"/>
        <path class="cls-1" d="m160.46,37.81c.92,0,1.67-.1,2.24-.3,1.09-.39,1.64-1.11,1.64-2.17,0-.62-.27-1.09-.81-1.43-.54-.33-1.39-.62-2.55-.87l-1.98-.44c-1.94-.44-3.29-.92-4.03-1.43-1.26-.86-1.89-2.21-1.89-4.04,0-1.67.61-3.06,1.83-4.17s3-1.66,5.36-1.66c1.97,0,3.65.52,5.04,1.57,1.39,1.04,2.12,2.56,2.19,4.54h-3.75c-.07-1.12-.56-1.92-1.47-2.4-.61-.31-1.36-.47-2.27-.47-1.01,0-1.81.2-2.41.61-.6.41-.9.97-.9,1.7,0,.67.3,1.17.89,1.5.38.22,1.19.48,2.43.77l3.22.77c1.41.34,2.48.79,3.19,1.36,1.12.88,1.67,2.15,1.67,3.82s-.65,3.12-1.96,4.25c-1.31,1.13-3.15,1.69-5.53,1.69s-4.35-.56-5.74-1.67c-1.39-1.11-2.09-2.64-2.09-4.58h3.73c.12.85.35,1.49.7,1.91.63.77,1.72,1.15,3.26,1.15Z"/>
        <path class="cls-1" d="m182.41,32.4v8.11h-3.69v-8.4c0-.74-.13-1.34-.38-1.8-.33-.64-.95-.96-1.88-.96s-1.68.32-2.17.96c-.49.64-.74,1.55-.74,2.73v7.48h-3.6v-18.62h3.6v6.6c.52-.8,1.13-1.36,1.82-1.68.69-.32,1.41-.48,2.17-.48.85,0,1.63.15,2.33.44.7.3,1.27.75,1.72,1.36.38.52.61,1.05.7,1.59.08.54.13,1.43.13,2.67Z"/>
        <path class="cls-1" d="m188.71,21.71v3.33h-3.66v-3.33h3.66Zm0,4.98v13.82h-3.66v-13.82h3.66Z"/>
        <path class="cls-1" d="m203.26,36.45c-.09.82-.52,1.65-1.28,2.5-1.18,1.34-2.84,2.02-4.97,2.02-1.76,0-3.31-.57-4.65-1.7-1.34-1.13-2.02-2.97-2.02-5.53,0-2.39.61-4.23,1.82-5.5s2.79-1.91,4.72-1.91c1.15,0,2.18.22,3.11.65.92.43,1.68,1.11,2.28,2.04.54.82.89,1.77,1.05,2.85.09.63.13,1.55.11,2.74h-9.46c.05,1.39.49,2.36,1.31,2.92.5.35,1.1.52,1.8.52.74,0,1.35-.21,1.81-.63.25-.23.48-.54.67-.95h3.69Zm-3.57-4.23c-.06-.96-.35-1.68-.87-2.17-.52-.49-1.16-.74-1.93-.74-.84,0-1.49.26-1.95.79s-.75,1.23-.87,2.13h5.62Z"/>
        <path class="cls-1" d="m205.17,21.83h3.61v18.68h-3.61v-18.68Z"/>
        <path class="cls-1" d="m224.1,21.85v18.66h-3.51v-1.91c-.52.82-1.1,1.42-1.76,1.79-.66.37-1.48.56-2.46.56-1.61,0-2.97-.65-4.08-1.96-1.1-1.31-1.65-2.98-1.65-5.03,0-2.36.54-4.21,1.63-5.56s2.54-2.03,4.35-2.03c.84,0,1.58.18,2.23.55.65.37,1.18.88,1.58,1.53v-6.59h3.66Zm-9.73,11.84c0,1.28.25,2.29.76,3.05.5.77,1.26,1.15,2.28,1.15s1.8-.38,2.33-1.14c.53-.76.8-1.74.8-2.95,0-1.69-.43-2.9-1.28-3.63-.52-.44-1.13-.66-1.83-.66-1.06,0-1.83.4-2.33,1.2-.49.8-.74,1.79-.74,2.97Z"/>
      </g>
      <g id="Artwork_6" data-name="Artwork 6">
        <rect class="cls-2" width="60" height="60"/>
        <g>
          <g>
            <path class="cls-1" d="m20.66,46.66l-1.34-1.93c-.06,0-.14,0-.25,0h-1.49v1.92h-1.22v-6.59h2.71c.57,0,1.07.09,1.49.28.42.19.75.46.97.81s.34.77.34,1.25-.12.92-.36,1.28-.59.62-1.04.8l1.51,2.16h-1.32Zm-.44-5.21c-.28-.23-.68-.34-1.21-.34h-1.43v2.62h1.43c.53,0,.94-.11,1.21-.34.28-.23.41-.55.41-.97s-.14-.74-.41-.97Z"/>
            <path class="cls-1" d="m23.04,40.07h1.22v6.59h-1.22v-6.59Z"/>
            <path class="cls-1" d="m25.47,40.07h2.88c.7,0,1.33.14,1.87.41s.97.66,1.27,1.16c.3.5.45,1.07.45,1.73s-.15,1.23-.45,1.73-.72.88-1.27,1.16-1.17.41-1.87.41h-2.88v-6.59Zm2.82,5.55c.48,0,.91-.09,1.28-.28s.65-.45.85-.79.3-.74.3-1.19-.1-.85-.3-1.19-.48-.6-.85-.79-.79-.28-1.28-.28h-1.6v4.52h1.6Z"/>
            <path class="cls-1" d="m37.37,43.29h1.16v2.62c-.34.27-.73.48-1.19.62s-.92.22-1.39.22c-.67,0-1.28-.15-1.82-.44s-.96-.69-1.27-1.21-.46-1.09-.46-1.74.15-1.23.46-1.74c.31-.51.73-.92,1.28-1.21.54-.29,1.15-.44,1.83-.44.55,0,1.05.09,1.51.27s.83.45,1.14.8l-.77.75c-.5-.5-1.11-.75-1.82-.75-.46,0-.88.1-1.24.29-.36.19-.64.47-.85.82s-.31.75-.31,1.2.1.83.31,1.19.49.63.85.83c.36.2.77.3,1.23.3.51,0,.97-.11,1.36-.34v-2.05Z"/>
            <path class="cls-1" d="m44.7,45.63v1.03h-4.94v-6.59h4.81v1.03h-3.58v1.71h3.18v1.01h-3.18v1.82h3.72Z"/>
            <path class="cls-1" d="m19.16,51.81c-.23-.07-.41-.16-.55-.28l.21-.47c.13.1.29.19.49.26.19.07.38.1.58.1.24,0,.42-.04.54-.12.12-.08.18-.18.18-.3,0-.09-.03-.17-.1-.23-.07-.06-.15-.11-.25-.14s-.24-.07-.41-.12c-.25-.06-.44-.12-.6-.17-.15-.06-.28-.15-.39-.27-.11-.12-.16-.29-.16-.5,0-.18.05-.34.15-.49.1-.15.24-.26.44-.35.2-.09.43-.13.72-.13.2,0,.39.03.58.07.19.05.35.12.49.21l-.19.47c-.14-.08-.29-.15-.44-.19-.15-.04-.3-.07-.45-.07-.24,0-.41.04-.53.12s-.17.19-.17.32c0,.09.03.17.1.23.07.06.15.1.25.14s.24.07.41.12c.24.05.44.11.59.17.15.06.28.15.39.27s.16.29.16.5c0,.18-.05.34-.15.48-.1.14-.24.26-.44.35-.2.09-.44.13-.72.13-.25,0-.49-.04-.72-.11Z"/>
            <path class="cls-1" d="m24.33,51.37v.5h-2.42v-3.22h2.35v.5h-1.75v.84h1.56v.49h-1.56v.89h1.82Z"/>
            <path class="cls-1" d="m25.47,51.7c-.26-.14-.47-.34-.62-.59s-.22-.54-.22-.85.08-.6.23-.85c.15-.25.36-.45.62-.59.26-.14.56-.21.88-.21.26,0,.51.05.72.14.22.09.4.23.55.4l-.39.36c-.23-.25-.52-.38-.86-.38-.22,0-.42.05-.59.14-.17.1-.31.23-.41.4s-.15.37-.15.59.05.41.15.58.23.31.41.4.37.15.59.15c.34,0,.63-.13.86-.38l.39.37c-.15.17-.33.31-.55.4-.22.09-.46.14-.72.14-.33,0-.62-.07-.88-.21Z"/>
            <path class="cls-1" d="m28.41,51.54c-.25-.25-.37-.61-.37-1.08v-1.82h.6v1.8c0,.63.27.95.82.95s.81-.32.81-.95v-1.8h.59v1.82c0,.47-.12.82-.37,1.08s-.59.37-1.04.37-.79-.12-1.04-.37Z"/>
            <path class="cls-1" d="m33.67,51.87l-.66-.94s-.07,0-.12,0h-.73v.94h-.6v-3.22h1.33c.28,0,.52.05.73.14.21.09.37.22.48.4s.17.38.17.61-.06.45-.18.63c-.12.17-.29.31-.51.39l.74,1.06h-.64Zm-.22-2.55c-.13-.11-.33-.17-.59-.17h-.7v1.28h.7c.26,0,.46-.06.59-.17.13-.11.2-.27.2-.48s-.07-.36-.2-.47Z"/>
            <path class="cls-1" d="m34.97,48.65h.6v3.22h-.6v-3.22Z"/>
            <path class="cls-1" d="m37.23,49.16h-1.07v-.51h2.73v.51h-1.07v2.72h-.6v-2.72Z"/>
            <path class="cls-1" d="m40.97,50.74v1.14h-.6v-1.13l-1.27-2.09h.64l.94,1.57.95-1.57h.59l-1.26,2.09Z"/>
          </g>
          <path class="cls-1" d="m29.65,24.31h-4.47v5.69h-8.2V8.61h13.25c2.62,0,4.9.32,6.83.96,1.93.64,3.42,1.56,4.47,2.75,1.05,1.19,1.57,2.59,1.57,4.2s-.49,2.9-1.47,4.05c-.98,1.15-2.38,2.05-4.2,2.71l6.25,6.72h-8.78l-5.26-5.69Zm3.89-10.12c-.86-.55-2.13-.83-3.81-.83h-4.55v6.27h4.55c1.68,0,2.95-.27,3.81-.81.85-.54,1.28-1.31,1.28-2.31s-.43-1.77-1.28-2.32Z"/>
          <rect class="cls-1" x="15.33" y="32.52" width="30" height="5.01"/>
        </g>
      </g>
    </g>
  </g>
</svg>